<?xml version="1.0" encoding="UTF-8" standalone="no"?>
<svg xmlns:dc="http://purl.org/dc/elements/1.1/" xmlns:cc="http://web.resource.org/cc/" xmlns:rdf="http://www.w3.org/1999/02/22-rdf-syntax-ns#" xmlns:svg="http://www.w3.org/2000/svg" xmlns="http://www.w3.org/2000/svg" version="1.1" width="1300px" height="710px"><defs id="SctDiagramsDefs"><marker id="BlackTriangle" refX="0" refY="10" markerWidth="8" markerHeight="6" orient="auto" viewBox="0 0 22 20" markerUnits="strokeWidth" fill="black" stroke="black" stroke-width="2"><path d="M 0 0 L 20 10 L 0 20 z"/></marker><marker id="ClearTriangle" refX="0" refY="10" markerWidth="8" markerHeight="8" orient="auto" viewBox="0 0 22 20" markerUnits="strokeWidth" fill="white" stroke="black" stroke-width="2"><path d="M 0 0 L 20 10 L 0 20 z"/></marker><marker id="LineMarker" refX="0" refY="10" markerWidth="8" markerHeight="8" orient="auto" viewBox="0 0 22 20" markerUnits="strokeWidth" fill="white" stroke="black" stroke-width="2"><path d="M 0 10 L 20 10"/></marker></defs><rect x="8" y="8" width="342" height="42" fill="white" stroke="#333" stroke-width="1"/><rect x="10" y="10" width="338" height="38" id="rect0" fill="#ccccff" stroke="#333" stroke-width="1"/><text x="20" y="26" font-family="&quot;Helvetica Neue&quot;,Helvetica,Arial,sans-serif" font-size="10" fill="black">772839003</text><text x="20" y="41" font-family="&quot;Helvetica Neue&quot;,Helvetica,Arial,sans-serif" font-size="12" fill="black">Pneumonia caused by Influenza A virus (disorder)</text><g><circle cx="100" cy="92" r="20" fill="white" stroke="black" stroke-width="2"/><line x1="93" y1="87" x2="107" y2="87" stroke="black" stroke-width="2"/><line x1="93" y1="92" x2="107" y2="92" stroke="black" stroke-width="2"/><line x1="93" y1="97" x2="107" y2="97" stroke="black" stroke-width="2"/></g><polyline points="48,50 48,92 65,92" id="poly1" fill="none" stroke="black" stroke-width="2" marker-end="url(#BlackTriangle)"/><circle cx="155" cy="92" r="10" fill="black" stroke="black" stroke-width="2"/><polyline points="120,92 120,92 130,92" id="poly1" fill="none" stroke="black" stroke-width="2" marker-end="url(#LineMarker)"/><rect x="193" y="72" width="327" height="42" fill="white" stroke="#333" stroke-width="1"/><rect x="195" y="74" width="323" height="38" id="rect1" fill="#ccccff" stroke="#333" stroke-width="1"/><text x="205" y="90" font-family="&quot;Helvetica Neue&quot;,Helvetica,Arial,sans-serif" font-size="10" fill="black">442438000</text><text x="205" y="105" font-family="&quot;Helvetica Neue&quot;,Helvetica,Arial,sans-serif" font-size="12" fill="black">Influenza caused by Influenza A virus (disorder)</text><polyline points="155,92 155,93 178,93" id="poly1" fill="none" stroke="black" stroke-width="2" marker-end="url(#ClearTriangle)"/><rect x="193" y="139" width="293" height="42" fill="white" stroke="#333" stroke-width="1"/><rect x="195" y="141" width="289" height="38" id="rect2" fill="#ccccff" stroke="#333" stroke-width="1"/><text x="205" y="157" font-family="&quot;Helvetica Neue&quot;,Helvetica,Arial,sans-serif" font-size="10" fill="black">16311000119108</text><text x="205" y="172" font-family="&quot;Helvetica Neue&quot;,Helvetica,Arial,sans-serif" font-size="12" fill="black">Pneumonia caused by influenza (disorder)</text><polyline points="155,92 155,160 178,160" id="poly1" fill="none" stroke="black" stroke-width="2" marker-end="url(#ClearTriangle)"/><circle cx="195" cy="223" r="20" fill="white" stroke="black" stroke-width="2"/><polyline points="155,92 155,223 160,223" id="poly1" fill="none" stroke="black" stroke-width="2" marker-end="url(#BlackTriangle)"/><circle cx="250" cy="223" r="10" fill="black" stroke="black" stroke-width="2"/><polyline points="215,223 215,223 225,223" id="poly1" fill="none" stroke="black" stroke-width="2" marker-end="url(#BlackTriangle)"/><rect x="278" y="203" width="222" height="42" rx="18" ry="18" fill="white" stroke="#333" stroke-width="1"/><rect x="280" y="205" width="218" height="38" rx="18" ry="18" id="rect3" fill="#ffffcc" stroke="#333" stroke-width="1"/><text x="290" y="221" font-family="&quot;Helvetica Neue&quot;,Helvetica,Arial,sans-serif" font-size="10" fill="black">370135005</text><text x="290" y="236" font-family="&quot;Helvetica Neue&quot;,Helvetica,Arial,sans-serif" font-size="12" fill="black">Pathological process (attribute)</text><polyline points="250,223 250,224 263,224" id="poly1" fill="none" stroke="black" stroke-width="2" marker-end="url(#BlackTriangle)"/><rect x="532" y="205" width="238" height="38" id="rect4" fill="#99ccff" stroke="#333" stroke-width="2"/><text x="542" y="221" font-family="&quot;Helvetica Neue&quot;,Helvetica,Arial,sans-serif" font-size="10" fill="black">441862004</text><text x="542" y="236" font-family="&quot;Helvetica Neue&quot;,Helvetica,Arial,sans-serif" font-size="12" fill="black">Infectious process (qualifier value)</text><polyline points="500,224 500,224 517,224" id="poly1" fill="none" stroke="black" stroke-width="2" marker-end="url(#BlackTriangle)"/><rect x="278" y="266" width="239" height="42" rx="18" ry="18" fill="white" stroke="#333" stroke-width="1"/><rect x="280" y="268" width="235" height="38" rx="18" ry="18" id="rect5" fill="#ffffcc" stroke="#333" stroke-width="1"/><text x="290" y="284" font-family="&quot;Helvetica Neue&quot;,Helvetica,Arial,sans-serif" font-size="10" fill="black">116676008</text><text x="290" y="299" font-family="&quot;Helvetica Neue&quot;,Helvetica,Arial,sans-serif" font-size="12" fill="black">Associated morphology (attribute)</text><polyline points="250,223 250,287 263,287" id="poly1" fill="none" stroke="black" stroke-width="2" marker-end="url(#BlackTriangle)"/><rect x="549" y="268" width="389" height="38" id="rect6" fill="#99ccff" stroke="#333" stroke-width="2"/><text x="559" y="284" font-family="&quot;Helvetica Neue&quot;,Helvetica,Arial,sans-serif" font-size="10" fill="black">707496003</text><text x="559" y="299" font-family="&quot;Helvetica Neue&quot;,Helvetica,Arial,sans-serif" font-size="12" fill="black">Inflammation and consolidation (morphologic abnormality)</text><polyline points="517,287 517,287 534,287" id="poly1" fill="none" stroke="black" stroke-width="2" marker-end="url(#BlackTriangle)"/><rect x="278" y="329" width="193" height="42" rx="18" ry="18" fill="white" stroke="#333" stroke-width="1"/><rect x="280" y="331" width="189" height="38" rx="18" ry="18" id="rect7" fill="#ffffcc" stroke="#333" stroke-width="1"/><text x="290" y="347" font-family="&quot;Helvetica Neue&quot;,Helvetica,Arial,sans-serif" font-size="10" fill="black">246075003</text><text x="290" y="362" font-family="&quot;Helvetica Neue&quot;,Helvetica,Arial,sans-serif" font-size="12" fill="black">Causative agent (attribute)</text><polyline points="250,223 250,350 263,350" id="poly1" fill="none" stroke="black" stroke-width="2" marker-end="url(#BlackTriangle)"/><rect x="503" y="331" width="199" height="38" id="rect8" fill="#99ccff" stroke="#333" stroke-width="2"/><text x="513" y="347" font-family="&quot;Helvetica Neue&quot;,Helvetica,Arial,sans-serif" font-size="10" fill="black">407479009</text><text x="513" y="362" font-family="&quot;Helvetica Neue&quot;,Helvetica,Arial,sans-serif" font-size="12" fill="black">Influenza A virus (organism)</text><polyline points="471,350 471,350 488,350" id="poly1" fill="none" stroke="black" stroke-width="2" marker-end="url(#BlackTriangle)"/><rect x="278" y="392" width="163" height="42" rx="18" ry="18" fill="white" stroke="#333" stroke-width="1"/><rect x="280" y="394" width="159" height="38" rx="18" ry="18" id="rect9" fill="#ffffcc" stroke="#333" stroke-width="1"/><text x="290" y="410" font-family="&quot;Helvetica Neue&quot;,Helvetica,Arial,sans-serif" font-size="10" fill="black">363698007</text><text x="290" y="425" font-family="&quot;Helvetica Neue&quot;,Helvetica,Arial,sans-serif" font-size="12" fill="black">Finding site (attribute)</text><polyline points="250,223 250,413 263,413" id="poly1" fill="none" stroke="black" stroke-width="2" marker-end="url(#BlackTriangle)"/><rect x="473" y="394" width="217" height="38" id="rect10" fill="#99ccff" stroke="#333" stroke-width="2"/><text x="483" y="410" font-family="&quot;Helvetica Neue&quot;,Helvetica,Arial,sans-serif" font-size="10" fill="black">39607008</text><text x="483" y="425" font-family="&quot;Helvetica Neue&quot;,Helvetica,Arial,sans-serif" font-size="12" fill="black">Lung structure (body structure)</text><polyline points="441,413 441,413 458,413" id="poly1" fill="none" stroke="black" stroke-width="2" marker-end="url(#BlackTriangle)"/></svg>